HIERARCHY
ROOT mixamorig:Hips
{
	OFFSET 0.00 0.00 0.00
	CHANNELS 6 Xposition Yposition Zposition Zrotation Yrotation Xrotation
	JOINT mixamorig:Spine
	{
		OFFSET	0.0000	9.9235	-1.2273
		CHANNELS 3 Zrotation Yrotation Xrotation
		JOINT mixamorig:Spine1
		{
			OFFSET	-0.0001	11.6455	-1.4224
			CHANNELS 3 Zrotation Yrotation Xrotation
			JOINT mixamorig:Spine2
			{
				OFFSET	0.0001	13.3602	-1.6265
				CHANNELS 3 Zrotation Yrotation Xrotation
				JOINT mixamorig:Neck
				{
					OFFSET	0.0000	15.0325	0.7929
					CHANNELS 3 Zrotation Yrotation Xrotation
					JOINT mixamorig:Head
					{
						OFFSET	-0.0000	10.3218	3.1424
						CHANNELS 3 Zrotation Yrotation Xrotation
						JOINT mixamorig:HeadTop_End
						{
							OFFSET	0.0002	18.4747	6.6364
							CHANNELS 3 Zrotation Yrotation Xrotation
							End Site
							{
								OFFSET 0.0000 0.0000 0.0000
							}
						}
						JOINT mixamorig:LeftEye
						{
							OFFSET	2.9479	7.6817	9.1207
							CHANNELS 3 Zrotation Yrotation Xrotation
							End Site
							{
								OFFSET 0.0000 0.0000 0.0000
							}
						}
						JOINT mixamorig:RightEye
						{
							OFFSET	-2.9445	7.6817	9.1205
							CHANNELS 3 Zrotation Yrotation Xrotation
							End Site
							{
								OFFSET 0.0000 0.0000 0.0000
							}
						}
					}
				}
				JOINT mixamorig:LeftShoulder
				{
					OFFSET	6.1059	9.1104	0.7056
					CHANNELS 3 Zrotation Yrotation Xrotation
					JOINT mixamorig:LeftArm
					{
						OFFSET	12.6532	-0.3431	-2.6009
						CHANNELS 3 Zrotation Yrotation Xrotation
						JOINT mixamorig:LeftForeArm
						{
							OFFSET	27.3517	-0.9645	-1.4034
							CHANNELS 3 Zrotation Yrotation Xrotation
							JOINT mixamorig:LeftHand
							{
								OFFSET	27.5619	-0.7072	1.5500
								CHANNELS 3 Zrotation Yrotation Xrotation
								JOINT mixamorig:LeftHandMiddle1
								{
									OFFSET	12.6630	-1.3962	0.9548
									CHANNELS 3 Zrotation Yrotation Xrotation
									JOINT mixamorig:LeftHandMiddle2
									{
										OFFSET	3.6093	-0.1669	0.0778
										CHANNELS 3 Zrotation Yrotation Xrotation
										JOINT mixamorig:LeftHandMiddle3
										{
											OFFSET	3.4004	-0.6274	0.1148
											CHANNELS 3 Zrotation Yrotation Xrotation
											End Site
											{
												OFFSET 3.6205 -0.6493 0.1199
											}
										}
									}
								}
								JOINT mixamorig:LeftHandThumb1
								{
									OFFSET	3.3268	-2.0474	3.5790
									CHANNELS 3 Zrotation Yrotation Xrotation
									JOINT mixamorig:LeftHandThumb2
									{
										OFFSET	3.4890	-1.4806	2.8548
										CHANNELS 3 Zrotation Yrotation Xrotation
										JOINT mixamorig:LeftHandThumb3
										{
											OFFSET	3.4086	-1.7658	2.1133
											CHANNELS 3 Zrotation Yrotation Xrotation
											End Site
											{
												OFFSET 2.7231 -1.1597 1.7903
											}
										}
									}
								}
								JOINT mixamorig:LeftHandIndex1
								{
									OFFSET	11.9722	-1.1061	3.7324
									CHANNELS 3 Zrotation Yrotation Xrotation
									JOINT mixamorig:LeftHandIndex2
									{
										OFFSET	3.8387	-0.6406	-0.0310
										CHANNELS 3 Zrotation Yrotation Xrotation
										JOINT mixamorig:LeftHandIndex3
										{
											OFFSET	3.3346	-0.7374	-0.0133
											CHANNELS 3 Zrotation Yrotation Xrotation
											End Site
											{
												OFFSET 2.9714 -0.8030 0.0009
											}
										}
									}
								}
								JOINT mixamorig:LeftHandRing1
								{
									OFFSET	12.1659	-1.6805	-1.2769
									CHANNELS 3 Zrotation Yrotation Xrotation
									JOINT mixamorig:LeftHandRing2
									{
										OFFSET	3.5925	-0.2366	-0.0771
										CHANNELS 3 Zrotation Yrotation Xrotation
										JOINT mixamorig:LeftHandRing3
										{
											OFFSET	3.2906	-0.3266	-0.0615
											CHANNELS 3 Zrotation Yrotation Xrotation
											End Site
											{
												OFFSET 3.5423 -0.9211 -0.0200
											}
										}
									}
								}
								JOINT mixamorig:LeftHandPinky1
								{
									OFFSET	11.0508	-2.1872	-3.8040
									CHANNELS 3 Zrotation Yrotation Xrotation
									JOINT mixamorig:LeftHandPinky2
									{
										OFFSET	4.1236	-0.3047	0.1212
										CHANNELS 3 Zrotation Yrotation Xrotation
										JOINT mixamorig:LeftHandPinky3
										{
											OFFSET	2.5805	-0.2597	0.0823
											CHANNELS 3 Zrotation Yrotation Xrotation
											End Site
											{
												OFFSET 2.9027 -0.3379 0.0963
											}
										}
									}
								}
							}
						}
					}
				}
				JOINT mixamorig:RightShoulder
				{
					OFFSET	-6.1057	9.1105	0.7056
					CHANNELS 3 Zrotation Yrotation Xrotation
					JOINT mixamorig:RightArm
					{
						OFFSET	-12.6532	-0.3429	-2.6009
						CHANNELS 3 Zrotation Yrotation Xrotation
						JOINT mixamorig:RightForeArm
						{
							OFFSET	-27.3518	-0.9642	-1.4034
							CHANNELS 3 Zrotation Yrotation Xrotation
							JOINT mixamorig:RightHand
							{
								OFFSET	-27.5619	-0.7068	1.5501
								CHANNELS 3 Zrotation Yrotation Xrotation
								JOINT mixamorig:RightHandMiddle1
								{
									OFFSET	-12.6630	-1.3960	0.9549
									CHANNELS 3 Zrotation Yrotation Xrotation
									JOINT mixamorig:RightHandMiddle2
									{
										OFFSET	-3.6093	-0.1669	0.0778
										CHANNELS 3 Zrotation Yrotation Xrotation
										JOINT mixamorig:RightHandMiddle3
										{
											OFFSET	-3.4004	-0.6273	0.1148
											CHANNELS 3 Zrotation Yrotation Xrotation
											End Site
											{
												OFFSET -3.6205 -0.6492 0.1199
											}
										}
									}
								}
								JOINT mixamorig:RightHandThumb1
								{
									OFFSET	-3.3269	-2.0474	3.5790
									CHANNELS 3 Zrotation Yrotation Xrotation
									JOINT mixamorig:RightHandThumb2
									{
										OFFSET	-3.4890	-1.4805	2.8548
										CHANNELS 3 Zrotation Yrotation Xrotation
										JOINT mixamorig:RightHandThumb3
										{
											OFFSET	-3.4086	-1.7658	2.1133
											CHANNELS 3 Zrotation Yrotation Xrotation
											End Site
											{
												OFFSET -2.7231 -1.1596 1.7903
											}
										}
									}
								}
								JOINT mixamorig:RightHandIndex1
								{
									OFFSET	-11.9722	-1.1059	3.7324
									CHANNELS 3 Zrotation Yrotation Xrotation
									JOINT mixamorig:RightHandIndex2
									{
										OFFSET	-3.8387	-0.6406	-0.0310
										CHANNELS 3 Zrotation Yrotation Xrotation
										JOINT mixamorig:RightHandIndex3
										{
											OFFSET	-3.3346	-0.7373	-0.0133
											CHANNELS 3 Zrotation Yrotation Xrotation
											End Site
											{
												OFFSET -2.9715 -0.8029 0.0009
											}
										}
									}
								}
								JOINT mixamorig:RightHandRing1
								{
									OFFSET	-12.1659	-1.6803	-1.2769
									CHANNELS 3 Zrotation Yrotation Xrotation
									JOINT mixamorig:RightHandRing2
									{
										OFFSET	-3.5925	-0.2366	-0.0771
										CHANNELS 3 Zrotation Yrotation Xrotation
										JOINT mixamorig:RightHandRing3
										{
											OFFSET	-3.2906	-0.3265	-0.0615
											CHANNELS 3 Zrotation Yrotation Xrotation
											End Site
											{
												OFFSET -3.5423 -0.9210 -0.0200
											}
										}
									}
								}
								JOINT mixamorig:RightHandPinky1
								{
									OFFSET	-11.0508	-2.1870	-3.8040
									CHANNELS 3 Zrotation Yrotation Xrotation
									JOINT mixamorig:RightHandPinky2
									{
										OFFSET	-4.1236	-0.3046	0.1212
										CHANNELS 3 Zrotation Yrotation Xrotation
										JOINT mixamorig:RightHandPinky3
										{
											OFFSET	-2.5805	-0.2597	0.0823
											CHANNELS 3 Zrotation Yrotation Xrotation
											End Site
											{
												OFFSET -2.9027 -0.3379 0.0963
											}
										}
									}
								}
							}
						}
					}
				}
			}
		}
	}
	JOINT mixamorig:RightUpLeg
	{
		OFFSET	-9.1245	-6.6564	-0.0554
		CHANNELS 3 Zrotation Yrotation Xrotation
		JOINT mixamorig:RightLeg
		{
			OFFSET	0.0000	-40.5610	-1.7662
			CHANNELS 3 Zrotation Yrotation Xrotation
			JOINT mixamorig:RightFoot
			{
				OFFSET	0.4978	-41.9625	-3.3512
				CHANNELS 3 Zrotation Yrotation Xrotation
				JOINT mixamorig:RightToeBase
				{
					OFFSET	-0.3734	-10.4922	12.6406
					CHANNELS 3 Zrotation Yrotation Xrotation
					End Site
					{
						OFFSET 0.0000 0.0000 9.9925
					}
				}
			}
		}
	}
	JOINT mixamorig:LeftUpLeg
	{
		OFFSET	9.1245	-6.6564	-0.0554
		CHANNELS 3 Zrotation Yrotation Xrotation
		JOINT mixamorig:LeftLeg
		{
			OFFSET	-0.0000	-40.5610	-1.7662
			CHANNELS 3 Zrotation Yrotation Xrotation
			JOINT mixamorig:LeftFoot
			{
				OFFSET	-0.4978	-41.9625	-3.3512
				CHANNELS 3 Zrotation Yrotation Xrotation
				JOINT mixamorig:LeftToeBase
				{
					OFFSET	0.3734	-10.4922	12.6406
					CHANNELS 3 Zrotation Yrotation Xrotation
					End Site
					{
						OFFSET -0.0000 0.0000 9.9925
					}
				}
			}
		}
	}
}
MOTION
Frames: 4
Frame Time: 0.0333333
0.0842 89.6844 1.8099 0.5025 -24.7387 -2.6892 4.6912 17.1996 3.3654 3.6035 2.1937 3.0371 3.6039 2.2724 2.9940 -4.1596 1.3456 2.0740 -7.6728 2.4726 5.2831 0.0000 -0.0000 0.0000 0.0000 -0.0000 0.0000 0.0000 -0.0000 0.0000 -7.8643 -11.0221 5.2425 -54.2046 -35.8689 -13.2316 175.4867 -53.7056 -177.9768 15.9595 4.7062 34.3712 -87.9379 -1.4381 6.2904 -85.4751 -0.9444 3.3322 -53.3011 -1.3441 2.1550 -7.8475 14.3112 12.1053 -4.6953 9.7950 0.3502 -0.9120 59.3868 9.8519 -80.5640 -3.9939 5.4600 -90.3154 -2.5748 1.1662 -51.1683 -1.6139 0.2455 -85.7327 -4.0939 5.9368 -92.0284 -3.4324 0.8199 -45.2848 -1.4910 -0.2141 -88.2660 0.7074 6.4421 -91.5608 -0.9055 8.0115 -50.6688 -1.2054 2.0965 6.3123 19.7485 3.5886 50.8869 46.1103 3.9197 -174.3425 66.0580 -176.6622 -30.2894 -9.1512 6.6188 94.4028 1.0196 6.5027 82.1258 0.9166 3.1349 54.7243 1.4050 2.8421 18.3403 -21.7004 2.1584 -3.4748 -3.9594 1.9283 -40.6826 -38.5226 55.1989 87.0340 3.4967 5.7440 86.9632 2.4464 1.0046 52.5824 1.5954 0.2599 91.4416 3.6357 6.1427 89.5780 3.3016 0.6673 47.2000 1.5949 0.1219 92.0323 0.8562 6.4018 88.4079 0.7260 3.7394 54.3342 1.1583 2.2558 -21.5806 -15.6966 6.5046 -0.6351 -3.9075 29.4564 20.5204 3.4210 -24.4044 -0.0000 0.0000 -0.5050 9.9078 17.9867 -34.4926 -0.1762 -11.2903 26.5973 -16.8230 -2.1628 5.5247 -0.0000 -0.0000 -1.0635 
0.8829 89.9886 2.6128 0.7333 -25.1595 -3.1666 4.1860 17.1713 3.9802 3.1445 2.1125 3.4044 3.1539 2.1663 3.3718 -3.7825 1.1844 2.0488 -7.7778 2.1273 5.2090 0.0000 -0.0000 0.0000 0.0000 -0.0000 0.0000 0.0000 -0.0000 0.0000 -7.9608 -11.4838 5.4290 -52.9552 -37.1364 -13.9032 175.3912 -55.2374 -177.8597 14.7889 4.2866 34.3870 -87.9380 -1.4381 6.2905 -85.4751 -0.9444 3.3322 -53.3012 -1.3441 2.1550 -7.8475 14.3112 12.1053 -4.6953 9.7950 0.3502 -0.9120 59.3868 9.8519 -80.5640 -3.9939 5.4600 -90.3154 -2.5748 1.1662 -51.1683 -1.6139 0.2455 -85.7327 -4.0939 5.9368 -92.0284 -3.4324 0.8199 -45.2848 -1.4910 -0.2141 -88.2660 0.7074 6.4421 -91.5608 -0.9055 8.0115 -50.6688 -1.2054 2.0965 5.8322 19.3468 3.3501 52.6129 45.0707 4.8592 -174.4461 65.3124 -176.7757 -30.7506 -7.1906 6.6144 94.4028 1.0196 6.5027 82.1258 0.9166 3.1349 54.7243 1.4050 2.8422 18.3402 -21.7003 2.1584 -3.4748 -3.9594 1.9283 -40.6826 -38.5226 55.1988 87.0340 3.4967 5.7440 86.9632 2.4464 1.0045 52.5823 1.5954 0.2599 91.4416 3.6357 6.1427 89.5780 3.3016 0.6674 47.2000 1.5949 0.1220 92.0323 0.8562 6.4018 88.4079 0.7260 3.7394 54.3341 1.1583 2.2558 -22.8905 -15.6678 10.7337 -1.5120 -3.8327 23.6194 20.4226 2.8566 -21.9392 -0.0000 -0.0000 -2.4076 9.4136 17.9649 -33.2963 -0.7318 -11.1390 27.5733 -15.7987 -3.4548 8.0931 0.0000 -0.0000 -0.5850 
1.8268 90.1203 3.6777 1.7750 -25.5839 -4.0777 3.5508 17.2647 4.3347 2.6043 2.1677 3.6180 2.6189 2.2039 3.5931 -3.4588 1.0418 2.1950 -7.9666 1.8762 5.1399 0.0000 -0.0000 0.0000 0.0000 -0.0000 0.0000 0.0000 -0.0000 0.0000 -8.1086 -11.5427 5.4779 -52.3082 -38.1694 -13.9537 175.1997 -57.9278 -177.6307 13.8491 4.2368 34.2211 -87.9379 -1.4381 6.2904 -85.4751 -0.9444 3.3322 -53.3012 -1.3441 2.1550 -7.8475 14.3111 12.1053 -4.6952 9.7951 0.3502 -0.9120 59.3868 9.8518 -80.5639 -3.9939 5.4600 -90.3154 -2.5748 1.1662 -51.1683 -1.6139 0.2455 -85.7327 -4.0939 5.9368 -92.0284 -3.4324 0.8199 -45.2848 -1.4910 -0.2141 -88.2660 0.7074 6.4421 -91.5608 -0.9055 8.0115 -50.6688 -1.2054 2.0965 5.9570 19.2622 3.3809 54.0010 44.2590 5.7411 -174.5154 64.7849 -176.8521 -31.1813 -6.1366 6.8030 94.4028 1.0196 6.5027 82.1258 0.9166 3.1348 54.7243 1.4050 2.8422 18.3402 -21.7004 2.1584 -3.4748 -3.9594 1.9283 -40.6826 -38.5226 55.1989 87.0340 3.4967 5.7440 86.9632 2.4464 1.0045 52.5824 1.5954 0.2599 91.4416 3.6356 6.1427 89.5779 3.3016 0.6674 47.2000 1.5949 0.1220 92.0323 0.8562 6.4018 88.4079 0.7260 3.7394 54.3342 1.1583 2.2558 -26.0110 -16.3074 12.3304 -1.8391 -2.0771 22.8183 21.1702 2.1558 -17.8407 0.0000 -0.0000 -7.1780 8.3789 17.7143 -33.0219 -2.2484 -10.5304 31.6004 -13.7410 -3.8708 5.8723 -0.0000 0.0000 -0.3964 
2.8379 90.5020 4.8068 2.7169 -27.0520 -4.4340 2.9941 17.5193 4.3798 2.1677 2.4073 3.6285 2.1850 2.4347 3.6068 -3.3285 1.0010 2.3656 -8.3310 1.9898 5.0807 0.0000 -0.0000 0.0000 0.0000 -0.0000 0.0000 0.0000 -0.0000 0.0000 -8.3010 -11.2041 5.3887 -52.3706 -38.4742 -13.5464 174.8914 -61.4363 -177.2743 13.6805 4.3231 34.7015 -87.9379 -1.4381 6.2904 -85.4751 -0.9444 3.3322 -53.3012 -1.3441 2.1550 -7.8475 14.3112 12.1053 -4.6953 9.7951 0.3502 -0.9120 59.3868 9.8518 -80.5640 -3.9939 5.4600 -90.3154 -2.5748 1.1662 -51.1683 -1.6139 0.2455 -85.7327 -4.0939 5.9368 -92.0284 -3.4324 0.8199 -45.2848 -1.4910 -0.2141 -88.2660 0.7074 6.4421 -91.5608 -0.9055 8.0115 -50.6688 -1.2054 2.0965 6.6082 19.5116 3.6590 54.5866 43.9058 6.4035 -174.5144 64.7933 -176.8510 -31.3822 -5.7638 7.1291 94.4028 1.0196 6.5027 82.1258 0.9166 3.1348 54.7243 1.4050 2.8422 18.3402 -21.7004 2.1584 -3.4748 -3.9594 1.9283 -40.6826 -38.5226 55.1988 87.0340 3.4967 5.7440 86.9632 2.4464 1.0046 52.5824 1.5954 0.2599 91.4416 3.6357 6.1427 89.5780 3.3016 0.6674 47.2000 1.5949 0.1220 92.0323 0.8562 6.4018 88.4079 0.7260 3.7394 54.3341 1.1583 2.2558 -28.5658 -16.9339 11.3174 -2.4046 1.0140 23.9880 21.4194 1.0529 -12.0389 0.0000 -0.0000 -12.7953 7.4159 17.3560 -32.4008 -3.1634 -10.0269 34.7369 -12.1872 -3.4542 2.1522 -0.0000 0.0000 -0.2094 
